<svg id="visual" viewBox="0 0 900 600" width="900" height="600" xmlns="http://www.w3.org/2000/svg" xmlns:xlink="http://www.w3.org/1999/xlink" version="1.1"><rect x="0" y="0" width="900" height="600" fill="#002233"></rect><path d="M0 401L21.5 413.3C43 425.7 86 450.3 128.8 456C171.7 461.7 214.3 448.3 257.2 437.8C300 427.3 343 419.7 385.8 429C428.7 438.3 471.3 464.7 514.2 471C557 477.3 600 463.7 642.8 467.7C685.7 471.7 728.3 493.3 771.2 495.2C814 497 857 479 878.5 470L900 461L900 601L878.5 601C857 601 814 601 771.2 601C728.3 601 685.7 601 642.8 601C600 601 557 601 514.2 601C471.3 601 428.7 601 385.8 601C343 601 300 601 257.2 601C214.3 601 171.7 601 128.8 601C86 601 43 601 21.5 601L0 601Z" fill="#0066FF" stroke-linecap="round" stroke-linejoin="miter"></path></svg>