<svg id="visual" viewBox="0 0 900 600" width="900" height="600" xmlns="http://www.w3.org/2000/svg" xmlns:xlink="http://www.w3.org/1999/xlink" version="1.1"><rect x="0" y="0" width="900" height="600" fill="#002233"></rect><path d="M0 419L21.5 412C43 405 86 391 128.8 386.5C171.7 382 214.3 387 257.2 409.8C300 432.7 343 473.3 385.8 491.5C428.7 509.7 471.3 505.3 514.2 496.3C557 487.3 600 473.7 642.8 476.3C685.7 479 728.3 498 771.2 503.3C814 508.7 857 500.3 878.5 496.2L900 492L900 601L878.5 601C857 601 814 601 771.2 601C728.3 601 685.7 601 642.8 601C600 601 557 601 514.2 601C471.3 601 428.7 601 385.8 601C343 601 300 601 257.2 601C214.3 601 171.7 601 128.8 601C86 601 43 601 21.5 601L0 601Z" fill="#0066FF" stroke-linecap="round" stroke-linejoin="miter"></path></svg>